<?xml version="1.0" encoding="utf-8"?>
<!-- Generator: Adobe Illustrator 28.0.0, SVG Export Plug-In . SVG Version: 6.00 Build 0)  -->
<svg version="1.1" id="Layer_1" xmlns="http://www.w3.org/2000/svg" xmlns:xlink="http://www.w3.org/1999/xlink" x="0px" y="0px"
	 viewBox="0 0 876 764" style="enable-background:new 0 0 876 764;" xml:space="preserve">
<style type="text/css">
	.st0{fill:#06ADBF;}
	.st1{fill:#FAFBFF;}
</style>
<circle class="st0" cx="398.12" cy="386" r="320"/>
<path class="st1" d="M517.31,248c-10.39,0-18.82,8.43-18.82,18.82v15.77l-200.73,53.13v-15.59c0-10.39-8.43-18.82-18.82-18.82
	s-18.82,8.43-18.82,18.82v131.73c0,10.39,8.43,18.82,18.82,18.82s18.82-8.43,18.82-18.82v-12.45l11.11,2.94
	c-0.59,2.69-0.92,5.47-0.92,8.34c0,21.44,17.38,38.81,38.81,38.81c17.43,0,32.17-11.49,37.08-27.3l114.65,30.35v12.64
	c0,10.39,8.43,18.82,18.82,18.82c10.39,0,18.82-8.43,18.82-18.82V266.82C536.12,256.43,527.7,248,517.31,248z M346.77,471.31
	c-11.39,0-20.62-9.23-20.62-20.62c0-1.26,0.15-2.47,0.37-3.67l39.62,10.49C363.31,465.53,355.75,471.31,346.77,471.31z"/>
</svg>
