<?xml version="1.0" encoding="utf-8"?>
<!-- Generator: Adobe Illustrator 28.0.0, SVG Export Plug-In . SVG Version: 6.00 Build 0)  -->
<svg version="1.1" id="Layer_1" xmlns="http://www.w3.org/2000/svg" xmlns:xlink="http://www.w3.org/1999/xlink" x="0px" y="0px"
	 viewBox="0 0 1242 2208" style="enable-background:new 0 0 1242 2208;" xml:space="preserve">
<style type="text/css">
	.st0{fill:#FFFFFF;}
	.st1{fill:#919294;}
</style>
<path class="st0" d="M837.06,1707.55c-10.87,0-21.65-4.73-28.98-13.85L308.5,1073.78l557.89-557.89c14.53-14.53,38.06-14.53,52.59,0
	c14.53,14.52,14.53,38.08,0,52.59l-510.62,510.65L866,1647.02c12.88,15.99,10.36,39.41-5.62,52.3
	C853.5,1704.86,845.24,1707.55,837.06,1707.55z"/>
<path class="st1" d="M352.45,1864.22c-41.04,0-82.08-15.66-113.41-46.99c-62.66-62.61-62.66-164.21,0-226.82l474.73-474.73
	L239.04,640.94c-62.66-62.61-62.66-164.21,0-226.82c62.66-62.66,164.16-62.66,226.82,0l588.14,588.14
	c62.66,62.61,62.66,164.21,0,226.82l-588.14,588.14C434.53,1848.56,393.49,1864.22,352.45,1864.22z"/>
</svg>
